<svg width="1200" height="900" viewBox="0 0 1200 900" fill="none" xmlns="http://www.w3.org/2000/svg">
  <rect width="1200" height="900" fill="#F8E8C5"/>
  <circle cx="1000" cy="130" r="170" fill="#F5B642" opacity="0.35"/>
  <path d="M0 680C160 610 285 625 410 690C560 768 665 760 800 688C960 603 1070 610 1200 670V900H0V680Z" fill="#234A2B" opacity="0.16"/>
  <path d="M0 745C165 682 300 695 435 755C572 815 715 815 850 740C1000 655 1100 665 1200 720V900H0V745Z" fill="#234A2B" opacity="0.28"/>
  <rect x="270" y="250" width="660" height="410" rx="44" fill="white" opacity="0.76"/>
  <circle cx="600" cy="386" r="82" fill="#234A2B" opacity="0.9"/>
  <path d="M435 607C461 516 522 468 600 468C678 468 739 516 765 607" fill="#234A2B" opacity="0.9"/>
  <path d="M722 305C770 241 846 241 889 282C832 286 781 318 749 365C737 347 728 326 722 305Z" fill="#5C7A33"/>
  <ellipse cx="516" cy="334" rx="70" ry="89" transform="rotate(-18 516 334)" fill="#E66A2F"/>
  <ellipse cx="534" cy="321" rx="44" ry="62" transform="rotate(-18 534 321)" fill="#F5B642" opacity="0.8"/>
  <text x="600" y="715" text-anchor="middle" font-family="Arial, Helvetica, sans-serif" font-size="44" font-weight="700" fill="#234A2B">Foto del productor</text>
  <text x="600" y="768" text-anchor="middle" font-family="Arial, Helvetica, sans-serif" font-size="28" fill="#55615A">Reemplaza esta imagen en public/images/</text>
</svg>
